<svg width="42" height="42" viewBox="0 0 42 42" fill="none" xmlns="http://www.w3.org/2000/svg">
<path d="M31.4825 2.793C29.7172 2.60573 27.943 2.5146 26.1678 2.52C20.2825 2.52 16.625 6.2685 16.625 12.3025V16.3993H11.6813C11.4492 16.3993 11.2266 16.4914 11.0626 16.6555C10.8985 16.8196 10.8063 17.0422 10.8063 17.2743V24.0118C10.8063 24.2438 10.8985 24.4664 11.0626 24.6305C11.2266 24.7946 11.4492 24.8868 11.6813 24.8868H16.625V38.3968C16.625 38.6288 16.7172 38.8514 16.8813 39.0155C17.0454 39.1796 17.268 39.2718 17.5 39.2718H24.4615C24.6936 39.2718 24.9161 39.1796 25.0802 39.0155C25.2443 38.8514 25.3365 38.6288 25.3365 38.3968V24.8868H30.2645C30.477 24.8869 30.6822 24.8097 30.8419 24.6696C31.0016 24.5295 31.1049 24.3361 31.1325 24.1255L32.0023 17.388C32.0185 17.2645 32.0081 17.139 31.9719 17.0198C31.9357 16.9007 31.8744 16.7906 31.7923 16.697C31.7101 16.6034 31.6089 16.5284 31.4954 16.4771C31.3819 16.4257 31.2588 16.3992 31.1343 16.3993H25.3365V12.971C25.3365 11.2735 25.6778 10.5648 27.8005 10.5648H31.3688C31.6008 10.5648 31.8234 10.4726 31.9875 10.3085C32.1516 10.1444 32.2438 9.92182 32.2438 9.68975V3.661C32.2439 3.44857 32.1667 3.24335 32.0266 3.08363C31.8865 2.92392 31.6932 2.82062 31.4825 2.793ZM30.4938 8.813L27.7988 8.81475C24.024 8.81475 23.5865 11.1878 23.5865 12.971V17.276C23.5865 17.5078 23.6785 17.7301 23.8422 17.8941C24.0059 18.0581 24.228 18.1505 24.4598 18.151H30.1403L29.4945 23.1385H24.4615C24.2295 23.1385 24.0069 23.2307 23.8428 23.3948C23.6787 23.5589 23.5865 23.7814 23.5865 24.0135V37.52H18.375V24.0135C18.375 23.7814 18.2828 23.5589 18.1187 23.3948C17.9546 23.2307 17.7321 23.1385 17.5 23.1385H12.558V18.151H17.5C17.7321 18.151 17.9546 18.0588 18.1187 17.8947C18.2828 17.7306 18.375 17.5081 18.375 17.276V12.3025C18.375 7.273 21.2888 4.27 26.1678 4.27C27.9335 4.27 29.5278 4.36625 30.4938 4.45025V8.813Z" fill="white"/>
</svg>
